# xmcd CD database file
#
# Track frame offsets:
#	150
#	23287
#	43796
#	62357
#	79321
#	102639
#	122292
#	139388
#	208176
#	233662
#	258545
#	286374
#	312660
#	333210
#
# Disc length: 4648 seconds
#
# Revision: 2
# Processed by: cddbd v1.5.1PL0 Copyright (c) Steve Scherf et al.
# Submitted via: CDex 1.51
#
DISCID=c712260e
DTITLE=MANOLO TENA - Basikamente
DYEAR=1900
DGENRE=
TTITLE0=Marilyn Monroe
TTITLE1=Las mentiras del viento
TTITLE2=Sentado en el muelle de la bahía
TTITLE3=Desnudo bajo las lluvias
TTITLE4=Quiero beber y no olvidar
TTITLE5=Fuego en la piel
TTITLE6=Me busca y me captura
TTITLE7=Popurri
TTITLE8=Loco por verte
TTITLE9=Tocar madera
TTITLE10=Frío
TTITLE11=Llévame hasta el mar
TTITLE12=Sangre española
TTITLE13=Que te pasa
EXTD=
EXTT0=
EXTT1=
EXTT2=
EXTT3=
EXTT4=
EXTT5=
EXTT6=
EXTT7=
EXTT8=
EXTT9=
EXTT10=
EXTT11=
EXTT12=
EXTT13=
PLAYORDER=
